# xmcd CD database file
#
# Track frame offsets:
#	183
#	14808
#	28008
#	35733
#	43458
#	56733
#	67383
#	78483
#	89583
#	100083
#	113208
#	120858
#	131208
#	144633
#	157083
#	164733
#	180333
#	190458
#	199008
#	207633
#	219183
#	225858
#	234183
#	248733
#	254733
#	260208
#	266283
#	271083
#	280308
#	296208
#	302583
#	310533
#	320133
#
# Disc length: 4447 seconds
#
# Revision: 0
# Processed by: cddbd v1.5.1PL0 Copyright (c) Steve Scherf et al.
# Submitted via: CDex 1.51
#
DISCID=02115d21
DTITLE=Sonoton Authentic Series - SAS 045 - Authentic  South America 4 - Bolivia - Peru - Paraguay
DYEAR=1993
DGENRE=Contentum
TTITLE0=The Andes Bolivia - Peru - Achachikala
TTITLE1=The Andes Bolivia - Peru - Bailecitos
TTITLE2=The Andes Bolivia - Peru - Mayo pata retamita 1
TTITLE3=The Andes Bolivia - Peru - Mayo pata retamita 2
TTITLE4=The Andes Bolivia - Peru - Siway azucena
TTITLE5=The Andes Bolivia - Peru - Waynito
TTITLE6=The Andes Bolivia - Peru - Kitula wawa
TTITLE7=The Andes Bolivia - Peru - T'ola
TTITLE8=The Andes Bolivia - Peru - Khomerkocha
TTITLE9=The Andes Bolivia - Peru - El Triste
TTITLE10=The Andes Bolivia - Peru - Quena 1
TTITLE11=The Andes Bolivia - Peru - Quena 2
TTITLE12=The Andes Bolivia - Peru - Sorata
TTITLE13=The Andes Bolivia - Peru - Sonkoy sua
TTITLE14=The Andes Bolivia - Peru - Wanka
TTITLE15=The Andes Bolivia - Peru - Lunarejitu
TTITLE16=The Andes Bolivia - Peru - Contradanza
TTITLE17=The Andes Bolivia - Peru - Qullur
TTITLE18=The Andes Bolivia - Peru - Baile de los negritos
TTITLE19=The Andes Bolivia - Peru - Yaravi
TTITLE20=The Andes Bolivia - Peru - Impakmi, urpi
TTITLE21=The Andes Bolivia - Peru - Desconsuelo
TTITLE22=The Andes Bolivia - Peru - Amorosa Palomita
TTITLE23=The Andes Bolivia - Peru - Wayno
TTITLE24=The Andes Bolivia - Peru - Cocakintucha
TTITLE25=The Andes Bolivia - Peru - Esta noche he hecho sueno 1
TTITLE26=The Andes Bolivia - Peru - Esta noche he hecho sueno 2
TTITLE27=Paraguay - Galopera
TTITLE28=Paraguay - Piririta
TTITLE29=Paraguay - Pajaro colorin
TTITLE30=Paraguay - Pequena mariposa
TTITLE31=Paraguay - Madrecita Mia
TTITLE32=Paraguay - Canto al Paraguay
EXTD=YEAR: 1993
EXTT0=
EXTT1=
EXTT2=
EXTT3=
EXTT4=
EXTT5=
EXTT6=
EXTT7=
EXTT8=
EXTT9=
EXTT10=
EXTT11=
EXTT12=
EXTT13=
EXTT14=
EXTT15=
EXTT16=
EXTT17=
EXTT18=
EXTT19=
EXTT20=
EXTT21=
EXTT22=
EXTT23=
EXTT24=
EXTT25=
EXTT26=
EXTT27=
EXTT28=
EXTT29=
EXTT30=
EXTT31=
EXTT32=
PLAYORDER=
